<?xml version="1.0" encoding="UTF-8"?>
<!DOCTYPE svg PUBLIC "-//W3C//DTD SVG 1.1//EN" "http://www.w3.org/Graphics/SVG/1.1/DTD/svg11.dtd">
<!-- Creator: CorelDRAW 2020 (64-Bit) -->
<svg xmlns="http://www.w3.org/2000/svg" xml:space="preserve" width="536px" height="73px" version="1.1" shape-rendering="geometricPrecision" text-rendering="geometricPrecision" image-rendering="optimizeQuality" fill-rule="evenodd" clip-rule="evenodd"
viewBox="0 0 578.511 79.169"
 xmlns:xlink="http://www.w3.org/1999/xlink"
 xmlns:xodm="http://www.corel.com/coreldraw/odm/2003">
 <g id="Capa_x0020_1">
  <metadata id="CorelCorpID_0Corel-Layer"/>
  <path fill="#D0DDE5" fill-rule="nonzero" d="M37.531 78.386l0 -77.603 15.628 0 11.212 59.422 11.211 -59.422 15.642 0 0 77.603 -11.302 0 0 -61.24 -11.302 61.24 -8.484 0 -11.302 -61.24 0 61.24 -11.303 0zm77.006 -27.715l11.303 0 -5.651 -33.259 -5.652 33.259zm-16.953 27.715l16.953 -77.603 11.303 0 16.953 77.603 -11.302 0 -4.235 -19.408 -14.135 0 -4.235 19.408 -11.302 0zm62.871 -44.345l2.833 0c4.702,0 8.228,-0.975 10.594,-2.926 2.351,-1.951 3.526,-5.129 3.526,-9.549 0,-4.42 -1.175,-7.598 -3.526,-9.549 -2.366,-1.951 -5.892,-2.926 -10.594,-2.926l-2.833 0 0 24.95zm-11.303 44.345l0 -77.603 14.136 0c8.409,0 14.753,1.597 19.018,4.804 4.264,3.208 6.405,8.529 6.405,15.979 0,4.627 -0.844,8.485 -2.517,11.603 -1.673,3.119 -4.129,5.262 -7.369,6.416l12.718 38.801 -11.226 0 -11.378 -36.037 -8.484 0 0 36.037 -11.303 0zm49.444 0l0 -77.603 11.303 0 0 77.603 -11.303 0zm43.808 0.783c-3.979,0 -7.384,-0.591 -10.233,-1.774 -2.832,-1.182 -5.093,-2.926 -6.766,-5.203 -1.687,-2.276 -2.908,-4.952 -3.676,-8.026 -0.755,-3.074 -1.146,-6.651 -1.146,-10.731l0 -28.144c0,-4.065 0.391,-7.613 1.146,-10.658 0.768,-3.03 1.989,-5.661 3.676,-7.893 1.673,-2.247 3.934,-3.917 6.766,-5.055 2.849,-1.123 6.254,-1.685 10.233,-1.685 7.7,0 13.261,2.173 16.682,6.504 3.421,4.331 5.123,10.583 5.123,18.787l0 28.144c0,4.02 -0.391,7.568 -1.175,10.642 -0.783,3.075 -2.004,5.75 -3.677,8.056 -1.688,2.291 -3.948,4.035 -6.782,5.233 -2.847,1.197 -6.238,1.803 -10.171,1.803zm-8.244 -12.608c1.523,2.335 4.265,3.503 8.244,3.503 3.963,0 6.706,-1.168 8.228,-3.503 1.507,-2.336 2.275,-5.78 2.275,-10.348l0 -33.686c0,-4.509 -0.753,-7.879 -2.26,-10.096 -1.492,-2.217 -4.25,-3.34 -8.243,-3.34 -4.009,0 -6.767,1.123 -8.259,3.34 -1.506,2.217 -2.26,5.587 -2.26,10.096l0 33.686c0,4.568 0.769,8.012 2.275,10.348zm39.935 11.825l0 -77.603 15.628 0 11.212 59.422 11.211 -59.422 15.643 0 0 77.603 -11.303 0 0 -61.24 -11.302 61.24 -8.484 0 -11.302 -61.24 0 61.24 -11.303 0zm85.4 0.783c-3.978,0 -7.383,-0.591 -10.232,-1.774 -2.832,-1.182 -5.093,-2.926 -6.766,-5.203 -1.688,-2.276 -2.909,-4.952 -3.677,-8.026 -0.754,-3.074 -1.145,-6.651 -1.145,-10.731l0 -28.144c0,-4.065 0.391,-7.613 1.145,-10.658 0.768,-3.03 1.989,-5.661 3.677,-7.893 1.673,-2.247 3.934,-3.917 6.766,-5.055 2.849,-1.123 6.254,-1.685 10.232,-1.685 7.701,0 13.262,2.173 16.683,6.504 3.42,4.331 5.123,10.583 5.123,18.787l0 28.144c0,4.02 -0.391,7.568 -1.175,10.642 -0.784,3.075 -2.004,5.75 -3.677,8.056 -1.688,2.291 -3.948,4.035 -6.782,5.233 -2.848,1.197 -6.238,1.803 -10.172,1.803zm-8.243 -12.608c1.522,2.335 4.265,3.503 8.243,3.503 3.964,0 6.707,-1.168 8.229,-3.503 1.507,-2.336 2.275,-5.78 2.275,-10.348l0 -33.686c0,-4.509 -0.754,-7.879 -2.26,-10.096 -1.492,-2.217 -4.25,-3.34 -8.244,-3.34 -4.008,0 -6.766,1.123 -8.258,3.34 -1.507,2.217 -2.26,5.587 -2.26,10.096l0 33.686c0,4.568 0.768,8.012 2.275,10.348zm39.935 11.825l0 -77.603 11.303 0 0 69.281 19.786 0 0 8.322 -31.089 0zm36.861 0l0 -77.603 11.302 0 0 77.603 -11.302 0zm23.403 0l0 -77.603 8.484 0 19.772 47.981 0 -47.981 11.302 0 0 77.603 -8.032 0 -20.224 -51.617 0 51.617 -11.302 0zm62.871 -27.715l11.302 0 -5.651 -33.259 -5.651 33.259zm-16.954 27.715l16.954 -77.603 11.302 0 16.953 77.603 -11.302 0 -4.234 -19.408 -14.136 0 -4.234 19.408 -11.303 0z"/>
  <polygon fill="#D0DDE5" fill-rule="nonzero" points="26.961,61.125 0,42.26 0,31.475 26.961,12.596 26.961,23.38 8.081,36.824 26.961,50.34 "/>
  <polygon fill="#D0DDE5" fill-rule="nonzero" points="551.55,61.125 551.55,50.34 570.43,36.824 551.55,23.38 551.55,12.596 578.511,31.475 578.511,42.26 "/>
 </g>
</svg>
